<?xml version='1.0' encoding='utf-8'?>
<svg xmlns="http://www.w3.org/2000/svg" clip-rule="evenodd" fill-rule="evenodd" image-rendering="optimizeQuality" shape-rendering="geometricPrecision" text-rendering="geometricPrecision" version="1.1" viewBox="0 0 9144 9144"> <defs> <style type="text/css">.fil0 {fill:white} .fil1 {fill:#656D78;fill-rule:nonzero}</style> </defs> <polygon class="fil0" points="0 0 9144 0 9144 9144 0 9144"/> <path class="fil1" d="m3201 4021c-27-63-67-118-117-162-80-71-185-113-300-113-125 0-238 50-320 132s-132 195-132 320 50 238 132 320 195 132 320 132c45 0 88-6 128-18l-297-122c-87-35-150-102-184-182-33-79-36-172-1-258 36-86 103-150 183-184 79-33 171-36 258 0l330 135zm-70 701c-45 30-95 54-148 72-63 21-130 33-199 33-173 0-331-71-444-185-114-113-185-271-185-444 0-174 71-331 185-445 113-113 271-184 444-184 160 0 305 60 416 158 109 96 184 228 206 378l1695 695c36-20 73-35 113-46 36-10 74-17 113-20l355-955c33-101 89-190 162-263 122-121 289-196 474-196s353 75 474 196c122 121 197 289 197 474s-76 353-197 474c-17 17-34 32-53 47l-833 726c1 14 1 28 1 42 0 150-61 287-159 386-99 98-235 159-386 159-121 0-234-40-325-107-93-69-163-167-197-280v-1c-1-1-2-7-4-16l-1705-698zm2020 827-67-27c17 20 37 38 58 54 61 45 137 72 220 72 102 0 194-41 261-108s108-159 108-261-41-194-108-261c-65-65-155-106-254-108l38 15c86 35 150 102 183 182s36 172 1 258c-35 87-102 150-182 184-80 33-172 36-258 0zm1406-1797c61 61 99 145 99 238s-38 178-99 239v-1 1c-61 61-146 99-239 99s-177-38-238-99c-62-61-99-146-99-239 0-90 35-173 93-233l6-6c61-61 145-99 238-99s178 38 239 99v1zm255 238c0-136-55-260-144-349-90-90-213-145-350-145-136 0-260 55-349 145-89 89-145 213-145 349 0 273 221 494 494 494 117 0 225-41 309-109l30-26c3-3 7-6 10-10 90-89 145-213 145-349z"/> </svg>